<?xml version="1.0" encoding="UTF-8" standalone="no"?>
<!-- Created with Inkscape (http://www.inkscape.org/) -->

<svg
   width="194.64809mm"
   height="194.63651mm"
   viewBox="0 0 194.64809 194.63651"
   version="1.1"
   id="svg1"
   xml:space="preserve"
   sodipodi:docname="wyverns-update-plain.svg"
   inkscape:version="1.3.2 (091e20e, 2023-11-25)"
   xmlns:inkscape="http://www.inkscape.org/namespaces/inkscape"
   xmlns:sodipodi="http://sodipodi.sourceforge.net/DTD/sodipodi-0.dtd"
   xmlns="http://www.w3.org/2000/svg"
   xmlns:svg="http://www.w3.org/2000/svg"><sodipodi:namedview
     id="namedview1"
     pagecolor="#ffffff"
     bordercolor="#000000"
     borderopacity="0.25"
     inkscape:showpageshadow="2"
     inkscape:pageopacity="0.0"
     inkscape:pagecheckerboard="0"
     inkscape:deskcolor="#d1d1d1"
     inkscape:document-units="mm"
     inkscape:zoom="0.32081169"
     inkscape:cx="369.37556"
     inkscape:cy="367.81702"
     inkscape:window-width="1512"
     inkscape:window-height="833"
     inkscape:window-x="0"
     inkscape:window-y="38"
     inkscape:window-maximized="1"
     inkscape:current-layer="svg1" /><defs
     id="defs1" /><circle
     style="display:inline;fill:#f0d909;fill-opacity:1;stroke:none;stroke-width:0.102728;stroke-dasharray:none;stroke-opacity:1"
     id="circle1"
     cx="97.348129"
     cy="97.332672"
     r="97.299957" /><g
     id="layer1"
     style="display:inline"
     transform="translate(-7.4403507,-52.029772)"><path
       style="display:none;fill:#000000;fill-opacity:1;stroke:none;stroke-width:0.1;stroke-dasharray:none;stroke-opacity:1"
       d="m 10.501137,125.31373 9.454723,7.90266 c -2.866488,15.63852 -1.265182,27.49518 0.986163,36.76887 2.255827,9.29216 4.35218,12.86052 7.658316,19.88695 -2.60072,1.73284 -5.859121,3.00908 -11.052054,2.58695 C 16.221271,189.61612 11.025339,179.57891 8.5867621,163.95385 6.930868,153.3438 6.6764034,140.59024 10.501137,125.31373 Z"
       id="path2" /><path
       style="fill:#000000;fill-opacity:1;stroke:none;stroke-width:0.1;stroke-dasharray:none;stroke-opacity:1"
       d="m 12.158426,119.58792 10.669732,2.53335 C 28.735543,104.73583 39.406462,90.153571 53.76074,79.656427 68.088632,69.17858 86.08231,62.62993 106.97908,62.969803 c 8.57926,0.223429 16.77321,1.702974 24.83633,4.301339 1.90084,-0.639438 2.98492,-0.791288 4.88259,-1.588599 1.89768,-0.797311 4.47579,-2.147934 8.49695,-4.835517 C 113.16806,46.471042 81.518796,51.157097 57.572059,64.26694 45.833346,70.693397 35.908213,79.526062 28.264683,89.277458 20.657955,98.981901 15.312126,109.59629 12.158426,119.58792 Z"
       id="path1" /><path
       style="display:none;fill:#000000;fill-opacity:1;stroke:none;stroke-width:0.1;stroke-dasharray:none;stroke-opacity:1"
       d="m 23.987373,203.56835 c 2.503712,0.92509 5.975284,1.6169 10.920505,1.60977 0.120298,5.42301 1.014617,10.49685 2.446324,14.33077 -3.543676,-3.56998 -7.438351,-7.29135 -13.366829,-15.94054 z"
       id="path4" /><path
       style="display:none;fill:#000000;fill-opacity:1;stroke:none;stroke-width:0.1;stroke-dasharray:none;stroke-opacity:1"
       d="m 47.66805,214.12329 c 10.356801,9.59506 44.551077,24.36624 80.95078,6.15588 23.01793,-11.51561 51.39166,-38.77307 52.43869,-80.71678 3.28641,21.81579 -8.01053,48.92299 -19.51662,62.70481 -24.59224,29.45622 -52.24611,32.7055 -56.93974,33.48211 31.76551,-0.30543 59.54502,-16.29955 75.13108,-43.35578 10.34957,-17.96607 14.08515,-39.38376 9.61521,-60.96816 -3.61966,-17.47859 -12.87668,-34.884511 -30.34639,-49.396764 3.29499,-2.027627 6.00389,-4.569339 7.0885,-8.232644 15.38291,12.390297 27.53046,30.475918 32.87778,51.094858 7.67659,29.60042 1.49223,64.10631 -22.87948,90.6885 -16.15142,17.61634 -41.56262,30.70153 -70.03183,31.07932 -21.356948,0.28341 -44.0057,-6.14287 -64.756068,-23.55807 0.842241,-4.54571 4.945181,-8.0622 6.368088,-8.97728 z"
       id="path10" /><path
       style="display:inline;fill:#000000;fill-opacity:1;stroke:none;stroke-width:0.1;stroke-dasharray:none;stroke-opacity:1"
       d="m 144.64607,72.641499 c 2.83889,-2.509308 5.62622,-4.930877 6.54425,-8.865337 3.78425,2.075302 7.51961,4.4545 10.69848,6.797109 -4.77002,1.505056 -9.10444,3.070702 -14.07046,3.822785 -0.79549,-0.448473 -2.36138,-1.321477 -3.17227,-1.754557 z"
       id="path11" /><path
       style="display:inline;fill:#000000;fill-opacity:1;stroke:none;stroke-width:0.1;stroke-dasharray:none;stroke-opacity:1"
       d="m 54.310865,219.59702 c 10.356801,9.59506 37.908262,18.89251 74.307965,0.68215 23.01793,-11.51561 51.39166,-38.77307 52.43869,-80.71678 3.28641,21.81579 -8.01053,48.92299 -19.51662,62.70481 -24.59224,29.45622 -52.24611,32.7055 -56.93974,33.48211 31.76551,-0.30543 59.54502,-16.29955 75.13108,-43.35578 10.34957,-17.96607 14.08515,-39.38376 9.61521,-60.96816 -3.61966,-17.47859 -12.87668,-34.884511 -30.34639,-49.396764 3.29499,-2.027627 6.00389,-4.569339 7.0885,-8.232644 15.38291,12.390297 27.53046,30.475918 32.87778,51.094858 7.67659,29.60042 1.26972,63.904 -22.87948,90.6885 -15.99934,17.74528 -41.04332,30.72243 -70.03183,31.07932 -21.698138,0.26714 -46.345934,-6.4489 -66.966246,-25.45652 6.384042,1.62832 11.937707,-0.34774 15.221081,-1.6051 z"
       id="path18" /><path
       style="fill:#000000;fill-opacity:1;stroke:none;stroke-width:0.1;stroke-dasharray:none;stroke-opacity:1"
       d="m 10.501137,125.31373 9.454723,7.90266 c -2.866488,15.63852 -1.265182,27.49518 0.986163,36.76887 2.255827,9.29216 3.001254,10.82579 6.30739,17.85222 -1.533322,2.13312 -3.800028,10.49313 -3.402983,15.49587 C 16.607034,192.84427 11.025339,179.57891 8.5867621,163.95385 6.930868,153.3438 6.6764034,140.59024 10.501137,125.31373 Z"
       id="path19" /></g><g
     id="layer2"
     style="display:inline"
     transform="translate(-7.4403507,-52.029772)"><path
       style="display:none;fill:#000000;fill-opacity:1;stroke:none;stroke-width:0.1;stroke-dasharray:none;stroke-opacity:1"
       d="m 143.93206,107.27358 c -4.88113,-1.29351 -14.19649,-4.27389 -14.64338,-7.772 -0.35779,-1.757435 1.69833,-5.681329 5.62044,-7.554885 11.43745,-5.463561 14.10056,-4.730013 18.34382,-6.304532 5.88693,8.795331 9.6838,19.221567 12.01459,31.750857 0.16151,0.40136 0.45433,0.44951 0.73384,0.19597 l 3.41483,-3.84431 c 6.02104,25.84454 1.79241,50.42108 -16.5763,73.24833 -9.72365,10.76066 -21.67393,20.13125 -35.00477,25.1777 -14.65815,5.54891 -33.899803,8.2896 -49.788457,4.36114 74.660687,4.71133 90.448917,-51.14827 89.557677,-52.60634 -0.006,-0.33572 -0.45322,-0.71222 -0.74512,-0.0555 -0.88605,0.86677 -10.03171,25.09258 -35.24773,38.54853 7.74567,-7.58969 18.80086,-18.2107 24.79989,-31.13201 0.30735,-0.3881 -0.33585,-0.92099 -0.70734,-0.45815 -12.86627,15.05385 -17.44532,14.89619 -23.12248,16.68443 6.90141,-6.41842 12.09623,-16.31366 14.79926,-24.04668 2.67899,-7.66424 3.02998,-14.92712 1.41507,-20.88155 -0.0593,-0.30821 -0.43755,-0.33438 -0.55885,-0.15864 -2.16664,3.90506 -4.13007,6.41649 -6.42611,9.49029 -2.78248,-7.53305 -3.98082,-14.51777 -14.91958,-24.25981 -1.37727,-1.30288 -1.19955,-3.46489 6.39072,-3.28529 0.90294,0.14421 3.03477,0.33911 3.90046,0.55633 4.64969,1.16672 7.76394,2.07654 12.09636,3.16603 0.30007,0.0473 0.42664,-0.33404 0.14152,-0.70759 -6.67921,-6.65026 -8.272,-10.35143 -9.84261,-14.04731 -0.384,-1.73088 0.73455,-2.7329 2.92471,-3.39644 1.0319,-0.47361 3.02571,-1.06813 11.41171,-1.90838 0.66286,-0.0758 0.92239,-0.53642 0.0178,-0.76015 z"
       id="path9" /><path
       id="path7"
       style="display:inline;fill:#000000;fill-opacity:1;stroke:none;stroke-width:0.1;stroke-dasharray:none;stroke-opacity:1"
       d="m 148.09895,62.362475 c -3.45495,2.208863 -8.76278,6.535901 -14.13764,8.177278 -5.40083,1.649315 -11.57138,2.597815 -18.34875,4.011125 -8.93505,2.064815 -13.49749,5.660519 -17.470769,9.461955 -1.025194,0.952411 -1.983366,1.738955 -1.446423,0.220141 0.755586,-2.667529 4.232342,-7.393724 8.956562,-12.601298 1.59369,-1.756748 3.30792,-3.746108 4.35529,-6.155696 -9.56898,6.773609 -13.632842,9.557925 -19.152323,13.397115 -6.197463,6.100894 -9.424622,12.876808 -11.734167,19.86132 0.507983,6.189365 -1.360108,8.748075 -4.035929,10.073285 0.442603,2.37298 1.532157,4.51762 -0.900721,7.90546 -3.973336,3.6757 -7.579199,3.12672 -11.207584,2.83549 0.826025,1.77112 1.637206,3.5276 2.201416,5.0369 -2.317081,1.21972 -5.094959,-0.25018 -7.938534,-2.10168 0.719211,11.38261 9.487652,19.08192 16.255856,19.86029 -0.789365,-3.08662 -1.138731,-6.06144 1.485697,-8.27909 1.669934,-1.53098 6.044607,-1.67103 12.111922,-0.94051 -0.553403,-2.931 -2.022945,-6.3421 0.725537,-10.22986 1.034083,-1.46273 2.884034,-3.03696 5.712313,-3.67936 4.357849,-1.20428 8.365057,-0.07 12.328447,1.35547 0.70951,0.28746 0.62568,0.57503 0.047,0.86248 l -7.17166,2.38486 c 2.17844,1.64081 4.62427,3.0248 5.23689,6.1712 0.22875,4.82398 -1.71606,6.3874 -3.83594,7.68842 1.0114,1.64722 2.13039,3.27904 1.43402,5.17023 -0.73774,2.87274 -3.658557,2.89067 -8.622214,2.4014 4.951663,8.28426 14.493984,7.88489 21.116544,7.59076 -4.94107,-3.52639 -5.68887,-5.18126 -5.70767,-6.5102 -0.15201,-2.55843 4.78654,-2.8781 8.21346,-3.20187 -2.84899,-3.13441 -9.70903,-12.09832 -3.71864,-19.43809 1.31591,-1.13864 1.73904,-1.56199 3.04943,-2.00712 6.35278,-2.158 10.8474,-0.62329 14.48904,0.46768 l -3.44734,-6.29419 c -2.02391,-3.82074 -0.97229,-7.09343 5.96708,-9.31675 -2.99516,-1.65969 -7.01813,-2.77519 -7.51944,-6.76961 -0.19549,-6.844347 7.00289,-10.871898 18.22473,-14.812015 9.00829,-3.162912 15.9418,-5.328677 20.28817,-12.742375 -6.73569,4.924588 -18.41431,5.980001 -26.79165,6.545854 -6.85436,0.756936 -14.40171,3.453987 -22.1387,6.682279 -1.00357,0.219404 -1.67024,0.287999 -0.38034,-0.856278 0.35214,-0.305008 1.50022,-1.040886 2.53576,-1.536857 2.44095,-1.169101 5.44944,-2.907165 7.75405,-4.037997 5.36251,-2.631287 11.19664,-4.762494 17.17931,-8.607226 1.74408,-1.430324 4.83319,-4.850718 6.03788,-8.04292 z M 98.077196,103.57288 c 0.287574,-0.02 0.556467,0.18094 0.51418,0.67903 -0.615844,4.3027 -3.786446,6.928 -7.492049,8.05325 -0.819553,0.24887 -1.604345,0.25154 -2.853573,0.25942 -0.524531,0.013 -0.994323,-0.20156 -0.374654,-0.72554 4.12561,-3.62759 6.404948,-5.28994 9.829891,-8.10906 0.111122,-0.0931 0.245489,-0.148 0.376205,-0.1571 z" /><path
       fill="#000000"
       d="m 104.80374,165.24718 c 0.66972,-0.005 1.38441,0.12236 2.11563,0.37465 1.75256,0.60503 3.47028,1.95202 4.49244,3.73693 -7.99848,7.12266 -11.11353,13.10845 -11.16831,22.66012 -4.491509,-8.03858 -3.779099,-17.31678 1.77943,-25.65405 0.71602,-0.74476 1.68527,-1.10959 2.78091,-1.11765 z m -9.692429,3.6561 c 0.66952,-0.005 1.3842,0.12248 2.11532,0.37476 0.25766,0.0889 0.5149,0.19658 0.76894,0.31657 -1.52982,3.30295 -2.39096,6.72186 -2.55798,10.12197 -3.40961,4.65708 -4.8519,9.49037 -4.89004,15.9551 -4.48882,-8.03951 -3.77238,-17.31988 1.78935,-25.65735 0.7152,-0.73898 1.68259,-1.10278 2.7742,-1.11105 z m -7.31563,5.12258 c 0.0527,-4.2e-4 0.10521,0.002 0.15844,0.003 -2.00112,4.66225 -2.67808,9.52935 -1.96701,14.23686 -1.88981,3.66076 -2.72645,7.62403 -2.75487,12.52844 -4.48924,-8.03982 -3.77259,-17.31988 1.78935,-25.65735 0.7152,-0.73898 1.68279,-1.10298 2.7743,-1.11105 z m 32.123519,11.77903 c 1.00335,0.0266 1.97952,0.26727 2.80344,0.66838 1.48281,0.72213 2.37557,1.85622 2.35748,3.16208 -0.91818,4.6236 -2.17454,8.03114 -4.20832,10.4064 -1.66863,1.94882 -3.89227,3.26956 -7.06995,4.04688 4.12233,-6.03095 4.85407,-9.36739 4.30857,-18.09016 0.45124,-0.11204 0.91509,-0.17467 1.37583,-0.19048 0.14408,-0.005 0.28939,-0.007 0.43284,-0.003 z"
       id="path1-9"
       style="display:none;stroke-width:0.103353" /><g
       id="layer7"
       style="display:inline"><path
         style="display:inline;fill:#000000;fill-opacity:1;stroke:none;stroke-width:0.1;stroke-dasharray:none;stroke-opacity:1"
         d="m 11.344599,122.30007 c 8.899361,2.77351 18.21737,4.88058 30.563233,11.91338 4.991984,3.10207 12.822392,8.31837 20.844142,20.69338 -5.584918,3.27506 -13.560506,7.80937 -17.95318,12.66647 0.440658,-6.01143 3.17747,-7.47247 -1.268936,-17.57041 -2.23598,-4.88056 -4.635726,-7.22273 -7.138231,-7.97214 -1.631015,-0.10227 -2.982568,0.15876 -4.169526,0.63377 -4.892275,-7.74176 -12.874807,-14.75555 -20.877502,-20.36445 z"
         id="path22" /><path
         style="display:inline;fill:#000000;fill-opacity:1;stroke:none;stroke-width:0.1;stroke-dasharray:none;stroke-opacity:1"
         d="m 85.874968,178.0641 c 2.03033,-1.52673 4.58054,-2.1327 7.3884,-2.25989 3.12211,0.31044 7.284672,3.71676 10.073582,5.01178 1.53355,0.95992 7.84009,-4.84738 -0.0539,-12.09568 -0.79298,-2.26331 -2.22332,-3.22224 -3.765385,-3.96534 2.468335,-0.15608 4.961205,0.007 7.605225,2.1348 0.56941,0.72508 1.13485,1.44618 1.73452,2.20151 0.85614,0.68585 1.71229,1.36674 2.56843,1.86795 0.57783,0.82404 1.21316,1.57006 1.3676,2.9687 -0.35319,1.24806 -0.75183,2.49107 -0.8339,3.76925 0.0129,0.84072 -0.0695,1.71321 0.3002,2.43501 1.53893,0.21149 3.20712,-0.60315 4.41995,-1.17438 2.69207,-1.67391 5.07634,-3.08912 4.71965,-6.19735 -0.36385,-1.45476 -0.29041,-2.65444 0.10007,-3.66918 0.93473,-1.47183 1.31501,-3.59893 0.86726,-6.7046 1.23237,1.06489 2.50431,1.80958 3.50241,4.76994 0.63125,3.43074 1.15031,6.83904 1.46767,10.207 -0.10399,1.32634 -1.48402,2.85175 -3.08259,4.52061 -0.91173,0.62218 -1.8303,1.23581 -2.98824,1.55022 -4.19507,1.38198 -6.59131,4.50476 -8.87275,7.73864 -3.06774,4.06978 -3.88423,6.13844 -5.03679,8.50583 -1.43289,3.27736 -0.33798,5.40572 0.60041,7.60522 l -10.473852,2.56843 c -3.89721,-3.04373 -6.19948,-1.40446 -8.67262,-0.26685 -1.87037,0.8323 -4.01628,0.5735 -6.67124,-1.70117 l -5.97076,-5.77062 c 2.74316,0.40554 2.12467,-0.18668 11.1312,2.07785 1.71223,-0.42182 3.59083,-1.60209 5.14478,-4.07922 1.61277,-3.91373 3.84677,-9.508 4.67172,-13.50927 0.39339,-4.9045 -4.88229,-5.29961 -6.34543,-5.87474 -1.21029,-2.52607 -2.65254,-3.01059 -4.89561,-2.66445 z"
         id="path20" /><path
         style="display:inline;fill:#000000;fill-opacity:1;stroke:none;stroke-width:0.991;stroke-opacity:1"
         d="m 27.478616,205.74503 c -2.252009,-15.78724 9.350835,-31.49502 34.495065,-46.92647 -2.093343,2.45895 -5.777258,8.6417 -4.239998,9.58509 2.563782,0.64812 21.772928,-20.43175 32.054337,-31.50584 -10.911016,14.20227 -28.034637,48.12547 -24.616884,50.83487 2.303419,2.82963 9.929795,-3.57151 14.61002,-9.47317 -2.580158,11.69621 -5.331156,21.7391 -17.345229,32.15539 -19.949003,16.81701 -33.572896,3.93873 -34.957311,-4.66987 z"
         id="path37" /></g><g
       id="layer6"
       style="display:none"><path
         style="display:inline;fill:#000000;fill-opacity:1;stroke:none;stroke-width:0.1;stroke-dasharray:none;stroke-opacity:1"
         d="m 27.108831,176.26162 c 6.39393,3.17784 13.171145,3.97713 18.585132,2.65301 3.47154,-0.96206 8.948949,-6.31073 13.028154,-15.73508 2.219496,-5.12778 4.45216,-9.98151 9.182792,-14.34413 0.849316,-0.80097 4.3699,-2.92272 8.500315,-4.01409 2.428489,-0.64167 3.088376,-0.87489 7.252157,-2.25688 2.760061,-0.98729 5.668301,-3.27342 7.272,-4.90608 -0.541316,4.25553 -1.385138,7.03506 -2.555778,9.0335 -2.18156,3.72422 -4.161199,4.99333 -5.322244,5.84216 -4.649636,2.80122 -6.385316,4.65649 -9.004267,8.94542 -1.647102,3.91204 -3.859611,6.34165 -2.951534,18.77162 0.09376,2.81601 1.497535,5.54888 2.404855,7.96136 -2.173122,-1.39345 -3.910497,-2.21289 -4.949524,-1.98302 -2.985502,1.21287 -5.429038,4.51267 -6.908609,11.37279 -1.001343,5.2814 0.572231,10.5628 2.55175,15.8442 -3.444747,-1.45593 -5.551349,-2.7354 -6.68792,-3.96939 -1.452802,-1.44385 -2.753585,-3.06034 -5.470419,-3.06877 -6.393421,1.45279 -9.407891,7.32907 -11.407824,11.30776 -1.42422,-4.15354 -1.420284,-5.62834 -1.673934,-7.47049 -0.432726,-3.01315 -0.08458,-5.92524 -1.251151,-7.37372 -1.86885,-1.64368 -1.979534,-1.33026 -7.298595,-1.41862 -6.378336,-0.68546 -9.547685,-3.51514 -10.888881,-5.26432 2.631085,0.13911 5.637123,-0.37696 9.720229,-2.33064 2.592913,-1.59715 4.853886,-3.15514 3.053278,-7.33027 -2.800684,-3.58484 -4.454372,-6.99589 -5.179982,-10.26632 z"
         id="path5" /><path
         style="display:inline;fill:#000000;fill-opacity:1;stroke:none;stroke-width:0.1;stroke-dasharray:none;stroke-opacity:1"
         d="m 79.888129,181.05752 c 2.030333,-1.52673 4.580541,-2.1327 7.388401,-2.25989 3.122109,0.31044 7.284669,3.71676 10.073576,5.01178 1.533558,0.95992 7.840094,-4.84738 -0.05391,-12.09568 -0.79298,-2.26331 -2.223311,-3.22224 -3.765379,-3.96534 2.468329,-0.15608 4.9612,0.007 7.605223,2.1348 0.56941,0.72508 1.13485,1.44618 1.73452,2.20151 0.85614,0.68585 1.71229,1.36674 2.56843,1.86795 0.57783,0.82404 1.21316,1.57006 1.3676,2.9687 -0.35319,1.24806 -0.75183,2.49107 -0.8339,3.76925 0.0129,0.84072 -0.0695,1.71321 0.3002,2.43501 1.53893,0.21149 3.20712,-0.60315 4.41995,-1.17438 2.69207,-1.67391 5.07634,-3.08912 4.71965,-6.19735 -0.36385,-1.45476 -0.29041,-2.65444 0.10007,-3.66918 0.93473,-1.47183 1.31501,-3.59893 0.86726,-6.7046 1.23237,1.06489 2.50431,1.80958 3.50241,4.76994 0.63125,3.43074 1.15031,6.83904 1.46767,10.207 -0.10399,1.32634 -1.48402,2.85175 -3.08259,4.52061 -0.91173,0.62218 -1.8303,1.23581 -2.98824,1.55022 -4.19507,1.38198 -6.59131,4.50476 -8.87275,7.73864 -3.06774,4.06978 -3.88423,6.13844 -5.03679,8.50583 -1.432891,3.27736 -0.33798,5.40572 0.60041,7.60522 l -10.47385,2.56843 c -3.89721,-3.04373 -6.199484,-1.40446 -8.672616,-0.26685 -1.870375,0.8323 -4.016281,0.5735 -6.671244,-1.70117 l -5.970762,-5.77062 c 2.743158,0.40554 2.124671,-0.18668 11.131207,2.07785 1.712221,-0.42182 3.590825,-1.60209 5.144777,-4.07922 1.612773,-3.91373 3.846769,-9.508 4.671719,-13.50927 0.393387,-4.9045 -4.882292,-5.29961 -6.345427,-5.87474 -1.210298,-2.52607 -2.652542,-3.01059 -4.895615,-2.66445 z"
         id="path6" /><path
         style="display:none;fill:#000000;fill-opacity:1;stroke:none;stroke-width:0.1;stroke-dasharray:none;stroke-opacity:1"
         d="m 11.344599,122.30007 c 8.899361,2.77351 18.357687,4.83381 29.955195,12.70851 4.383945,3.52302 8.347213,6.02238 16.368963,18.39739 -4.641462,6.48281 -7.798719,11.84276 -10.590294,17.10014 -0.359891,-6.01143 0.897801,-10.40528 -3.548605,-20.50322 -2.23598,-4.88056 -4.635726,-7.22273 -7.138231,-7.97214 -1.631015,-0.10227 -2.982568,0.15876 -4.169526,0.63377 -4.892275,-7.74176 -12.874807,-14.75555 -20.877502,-20.36445 z"
         id="path3" /></g><path
       style="display:inline;fill:#000000;fill-opacity:1;stroke:none;stroke-width:0.1;stroke-dasharray:none;stroke-opacity:1"
       d="m 143.93206,107.27358 c -4.88113,-1.29351 -14.19649,-4.27389 -14.64338,-7.772 -0.35779,-1.757435 1.69833,-5.681329 5.62044,-7.554885 11.43745,-5.463561 14.10056,-4.730013 18.34382,-6.304532 5.88693,8.795331 9.6838,19.221567 12.01459,31.750857 0.16151,0.40136 0.45433,0.44951 0.73384,0.19597 l 3.41483,-3.84431 c 6.02104,25.84454 1.79241,50.42108 -16.5763,73.24833 -9.72365,10.76066 -21.67393,20.13125 -35.00477,25.1777 -14.65815,5.54891 -33.899803,8.2896 -49.788457,4.36114 80.505927,3.24052 96.904177,-55.84404 96.881557,-77.74606 -2.20889,9.37789 -6.30898,41.35541 -43.02247,61.8546 11.1777,-8.2747 28.38094,-28.73819 31.72585,-48.42245 0.19102,-1.12411 -12.40942,29.21018 -31.05004,35.29487 6.90141,-6.41842 12.09623,-16.31366 14.79926,-24.04668 2.67899,-7.66424 3.02998,-14.92712 1.41507,-20.88155 -0.0593,-0.30821 -0.43755,-0.33438 -0.55885,-0.15864 -2.16664,3.90506 -4.13007,6.41649 -6.42611,9.49029 -2.78248,-7.53305 -3.98082,-14.51777 -14.91958,-24.25981 -1.37727,-1.30288 -1.19955,-3.46489 6.39072,-3.28529 0.90294,0.14421 3.03477,0.33911 3.90046,0.55633 4.64969,1.16672 7.76394,2.07654 12.09636,3.16603 0.30007,0.0473 0.42664,-0.33404 0.14152,-0.70759 -6.67921,-6.65026 -8.272,-10.35143 -9.84261,-14.04731 -0.384,-1.73088 0.73455,-2.7329 2.92471,-3.39644 1.0319,-0.47361 3.02571,-1.06813 11.41171,-1.90838 0.66286,-0.0758 0.92239,-0.53642 0.0178,-0.76015 z"
       id="path32" /></g><path
     style="display:inline;fill:#f0d909;fill-opacity:1;stroke:none;stroke-width:0.991"
     d="m 36.58299,140.11881 c 4.869783,-1.84697 9.824971,-4.64127 13.295647,-11.84579 1.443028,7.61087 2.233079,16.56245 -6.86552,24.1643 0.650397,2.24864 11.212418,-2.47876 14.445542,-7.91003 -14.523217,38.17179 -53.4242697,8.75513 -20.875669,-4.40848 z"
     id="path35" /><g
     id="layer5"
     style="display:inline"
     transform="translate(-7.4403507,-52.029772)"><path
       style="display:inline;fill:#ffffff;fill-opacity:1;stroke:none;stroke-width:0.1;stroke-opacity:1"
       d="m 64.811122,128.22128 c 1.860576,-0.20002 4.035615,-0.35726 5.637198,-1.33425 0.560393,-1.28266 -1.094554,-2.78685 -2.201511,-4.23624 3.961718,0.43943 6.414878,-0.83905 8.339053,-2.9687 2.228559,-4.31741 2.608194,-6.53358 1.6011,-9.60659 1.273887,-1.41036 2.503231,-2.81329 3.252229,-4.13617 0.687823,-1.49028 0.994283,-4.79202 1.150792,-8.80604 1.790055,-6.036268 4.432259,-10.059211 9.979229,-15.925425 -0.4229,2.109129 -6.428169,10.673845 -7.444158,16.459124 0.360899,3.452941 -0.334995,5.357241 -0.80055,7.738641 -0.753244,2.8548 -2.312586,4.72964 -4.036102,6.43775 1.288904,2.97415 1.405175,5.21459 -0.100069,8.23898 -2.541332,3.60484 -5.019005,4.47232 -7.47179,4.2696 0.528024,1.56767 0.537845,2.78986 -0.266851,3.46905 -2.64125,1.95462 -5.246777,0.77392 -7.63857,0.40027 z"
       id="path14" /><path
       style="display:inline;fill:#ffffff;fill-opacity:1;stroke:none;stroke-width:0.1;stroke-opacity:1"
       d="m 86.548906,110.6092 c -0.364525,-0.10661 -0.852742,-0.3457 -0.900619,-1.15079 0.187987,-2.71253 1.975531,-4.53022 4.102816,-6.05415 2.95655,-1.79331 5.512458,-2.3697 8.070527,-2.35615 -3.370324,0.59584 -5.08467,2.56786 -6.395318,3.72544 -1.396964,1.16745 -2.763604,4.17888 -3.25129,4.91001 -0.684218,0.77391 -0.998099,0.99229 -1.626116,0.92564 z"
       id="path15" /><path
       style="fill:#ffffff;fill-opacity:1;stroke:none;stroke-width:0.1"
       d="m 110.47961,105.62055 c 3.64171,-2.95965 7.91667,-4.19785 14.37389,-0.67946 -5.61195,-1.10386 -10.2844,-0.52675 -14.37389,0.67946 z"
       id="path17" /><path
       style="fill:#ffffff;fill-opacity:1;stroke:none;stroke-width:0.1"
       d="m 97.572818,87.56552 c 3.868772,-4.698066 9.410412,-8.670529 14.399752,-10.310625 3.21794,-1.319217 19.24535,-4.394457 21.27234,-4.527903 -2.56474,1.078729 -14.77547,4.497443 -19.52239,6.224425 -7.07426,2.871432 -10.79792,4.285354 -16.149702,8.614103 z"
       id="path23" /><path
       style="display:inline;fill:#ffffff;fill-opacity:1;stroke:none;stroke-width:0.1"
       d="m 115.04059,88.495691 c 4.46408,-3.309003 14.01724,-6.067898 19.38396,-7.189094 7.13405,-1.784238 10.01406,-0.433225 22.6171,-4.448061 -4.01468,2.715755 -14.33965,4.371987 -22.21287,5.755537 -6.74353,1.416224 -15.49475,4.000265 -19.78819,5.881618 z"
       id="path24" /><path
       style="display:none;fill:#ffffff;stroke-width:0.1"
       d="m 19.363677,125.72358 c 7.345175,2.09398 13.820754,5.22248 19.567108,8.09905 3.148783,1.57624 12.151795,8.37144 15.165237,12.63805 -6.268298,-5.38129 -10.782525,-8.35988 -16.032187,-11.33706 -6.004209,-3.40509 -12.01955,-6.57953 -18.700158,-9.40004 z"
       id="path25" /><path
       style="display:none;fill:#ffffff;stroke-width:0.1"
       d="m 133.46526,94.961744 c 5.70362,-2.662979 11.95137,-6.267232 19.24942,-7.000108 4.57948,9.76289 8.59592,17.700534 12.12738,36.022244 1.95885,-3.18272 2.83417,-4.36331 4.12179,-7.90734 1.85617,14.25667 1.52335,25.59202 -0.24658,35.00054 -1.70463,8.66177 -5.43686,14.89042 -8.24748,22.225 2.01378,-8.00119 5.293,-14.94784 5.95312,-24.07708 0.38749,-11.00736 -0.68101,-12.55083 -1.19062,-17.72708 0,0 -3.16756,7.807 -3.04271,7.27604 2.46667,-10.48992 -4.08159,-33.16662 -10.5663,-47.405815 -3.60877,-2.014658 -13.06297,2.713921 -18.15802,3.593599 z"
       id="path26" /><path
       style="display:inline;fill:#ffffff;stroke-width:0.1"
       d="m 118.03627,125.65634 c 5.61988,4.34887 11.48371,12.45975 14.68437,22.9526 2.28065,-3.46071 4.57413,-7.24178 6.32731,-10.35085 7.40822,18.78028 -2.42767,33.17833 -11.2221,45.54043 13.32945,-13.12027 20.57491,-32.4991 11.64167,-50.13854 -2.02365,3.77755 -3.80167,7.92354 -6.48229,10.71563 -4.55941,-11.50352 -10.3487,-16.88525 -14.94896,-18.71927 z"
       id="path27" /><g
       id="layer8"
       style="display:none"><path
         style="display:inline;fill:#ffffff;stroke-width:0.1"
         d="m 88.486587,177.28737 c 1.396748,-0.59006 3.561895,-0.77079 5.175912,-0.678 3.253877,0.62559 6.203845,2.78173 8.665101,4.63021 -4.356171,-1.69752 -7.801549,-4.73955 -13.841013,-3.95221 z"
         id="path28" /><path
         style="display:inline;fill:#ffffff;stroke-width:0.1"
         d="m 100.77317,164.98425 c 2.07997,0.41129 4.12478,0.62384 5.88131,2.1195 1.49495,2.61315 2.48262,3.35912 4.4124,4.41239 1.26333,2.30233 0.90051,3.14843 0.38885,5.68855 -0.30408,-1.74908 -0.11269,-3.68396 -1.32292,-5.09323 -3.12514,-1.68693 -3.14058,-1.99132 -4.36562,-4.56407 -0.85774,-0.77873 -2.73182,-1.65274 -4.99402,-2.56314 z"
         id="path29" /><path
         style="display:inline;fill:#ffffff;stroke-width:0.1"
         d="m 122.76667,163.24791 2.71197,4.23334 c 0,0 1.32292,8.33437 1.19063,8.06979 -0.13229,-0.26458 -3.9026,-12.30313 -3.9026,-12.30313 z"
         id="path30" /><path
         style="display:inline;fill:#ffffff;stroke-width:0.1"
         d="m 77.787499,202.53854 c 9.746185,2.69534 11.731022,4.0448 16.66875,-4.16719 -3.706818,11.77069 -10.975062,7.00037 -16.66875,4.16719 z"
         id="path31" /></g><path
       style="display:none;fill:#ffffff;stroke-width:0.1"
       d="m 17.387399,125.33585 c 7.298002,1.57508 15.797032,5.61021 21.543386,8.48678 3.148783,1.57624 12.151795,8.37144 15.165237,12.63805 -6.268298,-5.38129 -10.782522,-8.35988 -16.032187,-11.33706 -2.250142,-1.27609 -7.047375,-3.59455 -9.310206,-3.54202 -0.865533,0.0201 -1.497374,0.35351 -1.697609,1.04853 -0.13938,0.48378 3.2e-4,1.66309 -0.213199,1.35356 -0.43098,-0.62478 -3.382982,-3.63483 -5.543244,-5.52075 -0.682636,-0.63265 -3.23111,-2.83639 -3.912178,-3.12709 z"
       id="path34" /><path
       style="display:inline;fill:#ffffff;fill-opacity:1;stroke:none;stroke-width:0.991"
       d="m 44.023341,192.14858 c 4.869783,-1.84697 9.824971,-4.64127 13.295647,-11.84579 1.443028,7.61087 2.233079,16.56245 -6.86552,24.1643 0.650397,2.24864 11.212418,-2.47876 14.445542,-7.91003 -14.523217,38.17179 -53.42427,8.75513 -20.875669,-4.40848 z"
       id="path36" /></g></svg>
